<svg xmlns="http://www.w3.org/2000/svg" version="1.1" xmlns:xlink="http://www.w3.org/1999/xlink" xmlns:svgjs="http://svgjs.com/svgjs" width="1440" height="560" preserveAspectRatio="none" viewBox="0 0 1440 560"><g mask="url(&quot;#SvgjsMask1014&quot;)" fill="none"><rect width="1440" height="560" x="0" y="0" fill="rgba(25, 25, 29, 1)"></rect><path d="M0 57.04C6.91 26.26 5.18 10.69 31.43 0C75.18 -17.83 85.72 0 140 0C210 0 210 0 280 0C350 0 350 0 420 0C490 0 490 0 560 0C630 0 630 0 700 0C770 0 770 0 840 0C896 0 902.88 -13.51 952 0C972.88 5.74 965.92 38.5 980 38.5C994.18 38.5 987.48 5.79 1008.52 0C1057.48 -13.46 1064.26 0 1120 0C1190 0 1190 0 1260 0C1330 0 1330 0 1400 0C1470 0 1505 -35 1540 0C1575 35 1540 70 1540 140C1540 191.94 1552.56 197.3 1540 243.87C1533.68 267.3 1508.25 256.08 1502.25 280C1486.15 344.15 1482.74 356.31 1495.79 420C1501.61 448.41 1531.27 436.56 1540 464.21C1553.38 506.56 1568.44 540.54 1540 560C1498.44 588.44 1470 560 1400 560C1330 560 1330 560 1260 560C1190 560 1190 560 1120 560C1050 560 1050 560 980 560C910 560 910 560 840 560C826 560 823.83 566.76 812 560C753.83 526.76 741.27 480 700 480C675.27 480 708.51 543.71 680 560C638.51 583.71 620 560 560 560C520.93 560 518.52 569.16 481.86 560C448.52 551.66 449.11 525 420 525C398.33 525 404.48 553.96 380.3 560C334.48 571.46 330.15 560 280 560C210 560 210 560 140 560C70 560 35 595 0 560C-35 525 0 490 0 420C0 350 0 350 0 280C0 210 0 210 0 140C0 98.52 -8.8 96.26 0 57.04" stroke="rgba(25, 25, 29, 0.7)" stroke-width="2"></path><path d="M560 93.33C541.1 93.33 542.38 114.87 537.42 140C523.96 208.21 515.62 213.38 523.16 280C526.91 313.16 539.29 339.57 560 339.57C583.17 339.57 595.54 315.05 610.91 280C639.29 215.27 662.6 195.38 647.5 140C637.15 102.05 596.14 93.33 560 93.33" stroke="rgba(25, 25, 29, 0.7)" stroke-width="2"></path><path d="M1400 123.53C1396.07 123.53 1392 132.42 1392 140C1392 144.72 1396.04 148.12 1400 148.12C1403.88 148.12 1407.67 144.68 1407.67 140C1407.67 132.39 1403.9 123.53 1400 123.53" stroke="rgba(25, 25, 29, 0.7)" stroke-width="2"></path><path d="M840 269.09C829.84 269.09 819.51 270.99 819.51 280C819.51 299.78 830.05 326.67 840 326.67C849.84 326.67 859.09 300.05 859.09 280C859.09 271.26 849.63 269.09 840 269.09" stroke="rgba(25, 25, 29, 0.7)" stroke-width="2"></path><path d="M1120 254.75C1105.36 254.75 1088.57 262.38 1088.57 280C1088.57 330 1106.43 390 1120 390C1133.31 390 1142.32 332.01 1142.32 280C1142.32 264.38 1132.24 254.75 1120 254.75" stroke="rgba(25, 25, 29, 0.7)" stroke-width="2"></path><path d="M45 140C75.9 70.9 64.71 56.22 102.86 0C112.21 -13.78 121.43 0 140 0C168.44 0 170.86 -8.99 196.88 0C240.86 15.19 236.67 48.36 280 48.36C338.68 48.36 339.86 21.09 400.91 0C409.86 -3.09 410.46 0 420 0C431.66 0 443.01 -9.92 443.33 0C445.27 60.08 416.32 72 424.52 140C433.21 212 444.13 213.28 477.11 280C511.87 350.3 516.35 349.41 560 414.04C563.63 419.41 571.67 413.93 571.67 420C571.67 463.57 589.94 501.69 560 513.33C514.11 531.17 482.68 466.34 420 478.95C366.71 489.67 378.34 530.89 328.06 560C308.34 571.41 304.03 560 280 560C210 560 210 560 140 560C118.46 560 117.46 565.44 96.92 560C47.46 546.91 24.33 558.08 0 522.94C-24.13 488.08 0 471.47 0 420C0 350 0 350 0 280C0 255 -7.47 253.24 0 230C15.03 183.24 24.47 185.9 45 140" stroke="rgba(25, 25, 29, 0.7)" stroke-width="2"></path><path d="M700 21.54C691.65 5.9 670.53 5.96 670.53 0C670.53 -4.81 685.26 0 700 0C770 0 770 0 840 0C864.18 0 871.78 -14.92 888.36 0C941.78 48.08 933.91 126 980 126C1026.39 126 1019.39 48.55 1073.33 0C1089.39 -14.45 1096.66 0 1120 0C1160.64 0 1163.1 -9.19 1201.29 0C1233.1 7.66 1228.96 33.7 1260 33.7C1308.87 33.7 1309.82 12.35 1361.11 0C1379.82 -4.5 1380.55 0 1400 0C1470 0 1505 -35 1540 0C1575 35 1540 70 1540 140C1540 173.12 1554.76 179.43 1540 206.24C1516.22 249.43 1485.49 234.31 1462.92 280C1432.69 341.19 1450.05 350.31 1434.39 420C1418.59 490.31 1417.2 490 1400 560C1400 560 1400 560 1400 560C1330 560 1330 560 1260 560C1190 560 1190 560 1120 560C1050 560 1050 560 980 560C935.08 560 890.15 582.26 890.15 560C890.15 523.24 926.91 445.84 980 441.96C1041.83 437.44 1066.72 549.42 1120 543.2C1160.79 538.44 1150.53 483.42 1168.13 420C1187.05 351.82 1206.59 342.69 1193.04 280C1182.53 231.38 1160.04 197.38 1120 197.38C1072.09 197.38 1057.96 230.64 1017.14 280C987.96 315.28 999.45 366.67 980 366.67C960.2 366.67 970.71 312.76 938.64 280C900.71 241.25 889.74 223.64 840 223.64C787.5 223.64 782 245.78 734.15 280C712 295.84 715.59 323.75 700 323.75C685.79 323.75 674.55 301.88 674.55 280C674.55 258.13 688.6 258.82 700 236.25C723.97 188.82 745.29 188.97 745.29 140C745.29 81.62 729.03 75.9 700 21.54" stroke="rgba(25, 25, 29, 0.7)" stroke-width="2"></path><path d="M1400 20.59C1371.49 20.59 1342 85.07 1342 140C1342 174.19 1371.31 198.84 1400 198.84C1428.12 198.84 1455.62 173.93 1455.62 140C1455.62 84.8 1428.3 20.59 1400 20.59" stroke="rgba(25, 25, 29, 0.7)" stroke-width="2"></path><path d="M140 391.53C117.38 391.53 94.59 398.71 94.59 420C94.59 465.44 117.55 525 140 525C162.36 525 184.21 465.66 184.21 420C184.21 398.93 162.19 391.53 140 391.53" stroke="rgba(25, 25, 29, 0.7)" stroke-width="2"></path><path d="M1400 560C1400 551.28 1483.48 525.61 1540 525.61C1553.48 525.61 1553.8 556.61 1540 560C1483.8 573.8 1400 568.47 1400 560" stroke="rgba(25, 25, 29, 0.7)" stroke-width="2"></path><path d="M189.41 140C232.9 121.98 236.58 112 280 112C303.88 112 305.72 121.72 324 140C375.72 191.72 375.55 193.86 420 252C429.07 263.86 428.19 265.28 431.05 280C444.52 349.28 457.1 358.74 452.67 420C451.57 435.19 436.93 428.32 420 432.89C350.59 451.65 334.22 471.53 280 466.67C262.38 465.09 292 435.06 276.32 420C222 367.83 207.41 377.21 140 332.2C102.58 307.21 66.67 312.85 66.67 280C66.67 231.75 97.3 218.7 140 170C158.67 148.7 162.9 150.98 189.41 140" stroke="rgba(25, 25, 29, 0.7)" stroke-width="2"></path><path d="M796.76 140C796.76 90.73 813.1 31.11 840 31.11C869.72 31.11 910 94.49 910 140C910 168.03 872.85 178.18 840 178.18C816.23 178.18 796.76 164.26 796.76 140" stroke="rgba(25, 25, 29, 0.7)" stroke-width="2"></path><path d="M1120 140C1123.56 100.2 1196.71 98.52 1260 98.52C1282.71 98.52 1274.22 120.82 1292 140C1344.22 196.34 1347.37 193.58 1400 249.57C1413.17 263.58 1423.6 262.54 1423.6 280C1423.6 318.14 1420.05 325.07 1400 360.77C1380.75 395.07 1363.65 384.97 1345 420C1310.62 484.58 1328.56 502.99 1293.94 560C1286.06 572.99 1276.97 560 1260 560C1241.34 560 1226.58 574.74 1222.67 560C1207.99 504.74 1217.56 489.61 1222.81 420C1228.11 349.61 1265.93 340.34 1243.77 280C1214.52 200.34 1115.44 190.94 1120 140" stroke="rgba(25, 25, 29, 0.7)" stroke-width="2"></path><path d="M1503.56 140C1496.69 76.53 1505.61 61.98 1521.74 0C1523.83 -8.02 1538.95 -8.08 1540 0C1548.08 61.92 1540 70 1540 140C1540 154.3 1546.96 168.6 1540 168.6C1528.74 168.6 1505.82 160.83 1503.56 140" stroke="rgba(25, 25, 29, 0.7)" stroke-width="2"></path><path d="M942.39 560C942.39 544.61 958.03 510.59 980 510.59C1008.33 510.59 1043 546.17 1043 560C1043 570.88 1011.5 560 980 560C961.19 560 942.39 569.32 942.39 560" stroke="rgba(25, 25, 29, 0.7)" stroke-width="2"></path></g><defs><mask id="SvgjsMask1014"><rect width="1440" height="560" fill="#ffffff"></rect></mask></defs></svg>